<svg width="201" height="27" viewBox="0 0 201 27" fill="none" xmlns="http://www.w3.org/2000/svg">
<path d="M0.216 25.82L4.68 1.088C4.704 0.991999 4.764 0.943999 4.86 0.943999H10.08C10.176 0.943999 10.236 0.991999 10.26 1.088L14.544 25.82C14.568 25.94 14.52 26 14.4 26H10.404C10.308 26 10.248 25.94 10.224 25.82L9.828 23.192H4.932L4.536 25.82C4.512 25.94 4.452 26 4.356 26H0.36C0.264 26 0.216 25.94 0.216 25.82ZM5.652 19.34H9.108L7.632 9.224L7.416 7.892L7.272 9.224L5.652 19.34ZM17.1273 26C16.9353 26 16.8393 25.916 16.8393 25.748L16.8033 1.232C16.8033 1.04 16.8993 0.943999 17.0913 0.943999H20.3313L26.4153 15.128L26.2353 1.232C26.2353 1.04 26.3433 0.943999 26.5593 0.943999H30.1233C30.2673 0.943999 30.3393 1.04 30.3393 1.232L30.3753 25.784C30.3753 25.928 30.3153 26 30.1953 26H27.0273L20.7993 12.752L21.0513 25.712C21.0513 25.904 20.9433 26 20.7273 26H17.1273ZM40.1625 26.36C38.8665 26.36 37.6785 26.036 36.5985 25.388C35.5425 24.716 34.6905 23.84 34.0425 22.76C33.3945 21.656 33.0705 20.444 33.0705 19.124L33.1065 7.712C33.1065 6.392 33.4185 5.192 34.0425 4.112C34.6905 3.032 35.5545 2.168 36.6345 1.52C37.7145 0.872 38.8905 0.547999 40.1625 0.547999C41.4585 0.547999 42.6345 0.872 43.6905 1.52C44.7465 2.168 45.5865 3.032 46.2105 4.112C46.8585 5.192 47.1825 6.392 47.1825 7.712L47.2185 19.124C47.2185 20.444 46.8945 21.656 46.2465 22.76C45.6225 23.84 44.7705 24.716 43.6905 25.388C42.6345 26.036 41.4585 26.36 40.1625 26.36ZM40.1625 22.004C40.8825 22.004 41.5065 21.716 42.0345 21.14C42.5865 20.54 42.8625 19.868 42.8625 19.124L42.8265 7.712C42.8265 6.92 42.5745 6.248 42.0705 5.696C41.5665 5.144 40.9305 4.868 40.1625 4.868C39.4185 4.868 38.7825 5.144 38.2545 5.696C37.7265 6.224 37.4625 6.896 37.4625 7.712V19.124C37.4625 19.916 37.7265 20.6 38.2545 21.176C38.7825 21.728 39.4185 22.004 40.1625 22.004ZM53.0986 26C53.0026 26 52.9546 25.94 52.9546 25.82V5.3H48.2746C48.1546 5.3 48.0946 5.24 48.0946 5.12L48.1306 1.088C48.1306 0.991999 48.1786 0.943999 48.2746 0.943999H61.9546C62.0746 0.943999 62.1346 0.991999 62.1346 1.088V5.12C62.1346 5.24 62.0866 5.3 61.9906 5.3H57.2746L57.3106 25.82C57.3106 25.94 57.2626 26 57.1666 26H53.0986ZM64.0567 26C63.9607 26 63.9127 25.94 63.9127 25.82L63.9487 1.088C63.9487 0.991999 64.0087 0.943999 64.1287 0.943999H68.1247C68.2447 0.943999 68.3047 0.991999 68.3047 1.088L68.2687 10.88H73.6687V1.088C73.6687 0.991999 73.7167 0.943999 73.8127 0.943999H77.8087C77.9287 0.943999 77.9887 0.991999 77.9887 1.088L78.0607 25.82C78.0607 25.94 78.0007 26 77.8807 26H73.8487C73.7287 26 73.6687 25.94 73.6687 25.82V15.236H68.2687V25.82C68.2687 25.94 68.2207 26 68.1247 26H64.0567ZM81.1426 26C81.0466 26 80.9986 25.94 80.9986 25.82L81.0346 1.088C81.0346 0.991999 81.0826 0.943999 81.1786 0.943999H92.7346C92.8306 0.943999 92.8786 1.004 92.8786 1.124V5.156C92.8786 5.252 92.8306 5.3 92.7346 5.3H85.3546V10.916H92.7346C92.8306 10.916 92.8786 10.964 92.8786 11.06L92.9146 15.128C92.9146 15.224 92.8666 15.272 92.7706 15.272H85.3546V21.572H92.7706C92.8666 21.572 92.9146 21.632 92.9146 21.752V25.856C92.9146 25.952 92.8666 26 92.7706 26H81.1426ZM96.2598 26C96.1638 26 96.1158 25.94 96.1158 25.82L96.1878 1.088C96.1878 0.991999 96.2358 0.943999 96.3318 0.943999H103.604C104.9 0.943999 106.088 1.268 107.168 1.916C108.272 2.54 109.148 3.392 109.796 4.472C110.444 5.528 110.768 6.728 110.768 8.072C110.768 8.96 110.636 9.764 110.372 10.484C110.108 11.18 109.796 11.78 109.436 12.284C109.076 12.764 108.752 13.124 108.464 13.364C109.76 14.804 110.408 16.496 110.408 18.44L110.444 25.82C110.444 25.94 110.384 26 110.264 26H106.196C106.1 26 106.052 25.964 106.052 25.892V18.44C106.052 17.576 105.74 16.832 105.116 16.208C104.516 15.56 103.772 15.236 102.884 15.236H100.508L100.472 25.82C100.472 25.94 100.424 26 100.328 26H96.2598ZM100.508 10.916H103.604C104.348 10.916 105.008 10.64 105.584 10.088C106.16 9.536 106.448 8.864 106.448 8.072C106.448 7.304 106.16 6.644 105.584 6.092C105.032 5.54 104.372 5.264 103.604 5.264H100.508V10.916ZM112.259 25.82L116.723 1.088C116.747 0.991999 116.807 0.943999 116.903 0.943999H122.123C122.219 0.943999 122.279 0.991999 122.303 1.088L126.587 25.82C126.611 25.94 126.563 26 126.443 26H122.447C122.351 26 122.291 25.94 122.267 25.82L121.871 23.192H116.975L116.579 25.82C116.555 25.94 116.495 26 116.399 26H112.403C112.307 26 112.259 25.94 112.259 25.82ZM117.695 19.34H121.151L119.675 9.224L119.459 7.892L119.315 9.224L117.695 19.34ZM129.17 26C128.978 26 128.882 25.916 128.882 25.748L128.846 1.232C128.846 1.04 128.942 0.943999 129.134 0.943999H132.374L138.458 15.128L138.278 1.232C138.278 1.04 138.386 0.943999 138.602 0.943999H142.166C142.31 0.943999 142.382 1.04 142.382 1.232L142.418 25.784C142.418 25.928 142.358 26 142.238 26H139.07L132.842 12.752L133.094 25.712C133.094 25.904 132.986 26 132.77 26H129.17ZM145.725 26C145.605 26 145.545 25.94 145.545 25.82L145.581 1.088C145.581 0.991999 145.629 0.943999 145.725 0.943999H149.757C149.853 0.943999 149.901 0.991999 149.901 1.088L149.937 25.82C149.937 25.94 149.889 26 149.793 26H145.725ZM153.248 26C153.152 26 153.104 25.94 153.104 25.82L153.176 1.088C153.176 0.991999 153.224 0.943999 153.32 0.943999H157.712C157.808 0.943999 157.892 0.991999 157.964 1.088L161.24 5.84L164.516 1.088C164.588 0.991999 164.672 0.943999 164.768 0.943999H169.196C169.292 0.943999 169.34 0.991999 169.34 1.088L169.412 25.82C169.412 25.94 169.364 26 169.268 26H165.2C165.104 26 165.056 25.94 165.056 25.82L165.02 7.46L161.24 12.932L157.496 7.46L157.46 25.82C157.46 25.94 157.412 26 157.316 26H153.248ZM172.584 26C172.488 26 172.44 25.94 172.44 25.82L172.476 1.088C172.476 0.991999 172.524 0.943999 172.62 0.943999H184.176C184.272 0.943999 184.32 1.004 184.32 1.124V5.156C184.32 5.252 184.272 5.3 184.176 5.3H176.796V10.916H184.176C184.272 10.916 184.32 10.964 184.32 11.06L184.356 15.128C184.356 15.224 184.308 15.272 184.212 15.272H176.796V21.572H184.212C184.308 21.572 184.356 21.632 184.356 21.752V25.856C184.356 25.952 184.308 26 184.212 26H172.584ZM193.466 26.36C192.17 26.36 190.982 26.036 189.902 25.388C188.846 24.716 187.994 23.84 187.346 22.76C186.722 21.656 186.41 20.444 186.41 19.124V17.468C186.41 17.348 186.47 17.288 186.59 17.288H190.622C190.718 17.288 190.766 17.348 190.766 17.468V19.124C190.766 19.916 191.03 20.6 191.558 21.176C192.086 21.728 192.722 22.004 193.466 22.004C194.21 22.004 194.846 21.716 195.374 21.14C195.902 20.564 196.166 19.892 196.166 19.124C196.166 18.236 195.59 17.468 194.438 16.82C194.054 16.604 193.454 16.268 192.638 15.812C191.822 15.356 191.054 14.924 190.334 14.516C189.014 13.748 188.03 12.788 187.382 11.636C186.758 10.46 186.446 9.14 186.446 7.676C186.446 6.332 186.77 5.132 187.418 4.076C188.066 2.996 188.918 2.144 189.974 1.52C191.054 0.895999 192.218 0.583999 193.466 0.583999C194.738 0.583999 195.902 0.907999 196.958 1.556C198.038 2.18 198.89 3.032 199.514 4.112C200.162 5.168 200.486 6.356 200.486 7.676V10.628C200.486 10.724 200.438 10.772 200.342 10.772H196.31C196.214 10.772 196.166 10.724 196.166 10.628L196.13 7.676C196.13 6.836 195.866 6.152 195.338 5.624C194.81 5.096 194.186 4.832 193.466 4.832C192.722 4.832 192.086 5.12 191.558 5.696C191.03 6.248 190.766 6.908 190.766 7.676C190.766 8.468 190.934 9.128 191.27 9.656C191.606 10.184 192.218 10.688 193.106 11.168C193.226 11.24 193.454 11.372 193.79 11.564C194.15 11.732 194.534 11.936 194.942 12.176C195.35 12.392 195.71 12.584 196.022 12.752C196.358 12.92 196.562 13.028 196.634 13.076C197.834 13.748 198.782 14.576 199.478 15.56C200.174 16.52 200.522 17.708 200.522 19.124C200.522 20.492 200.198 21.728 199.55 22.832C198.926 23.912 198.074 24.776 196.994 25.424C195.938 26.048 194.762 26.36 193.466 26.36Z" fill="#D92B4B"/>
</svg>
