<svg width="32" height="32" viewBox="0 0 32 32" fill="none" xmlns="http://www.w3.org/2000/svg">
<path d="M28.5714 4.57129H3.42857C1.53502 4.57129 0 6.10631 0 7.99986V23.9998C0 25.8934 1.53502 27.4284 3.42857 27.4284H28.5714C30.465 27.4284 32 25.8934 32 23.9998V7.99986C32 6.10631 30.465 4.57129 28.5714 4.57129ZM29.7142 23.9998C29.7142 24.631 29.2026 25.1427 28.5714 25.1427H3.42857C2.79736 25.1427 2.28569 24.631 2.28569 23.9998V23.3301L6.85714 18.7587L10.6206 22.5221C11.0668 22.9683 11.7903 22.9683 12.2366 22.5221L21.7143 13.0444L29.7143 21.0444V23.9998H29.7142ZM29.7142 17.8124L22.5223 10.6204C22.076 10.1743 21.3526 10.1743 20.9063 10.6204L11.4286 20.0981L7.66513 16.3346C7.21888 15.8884 6.4954 15.8884 6.04915 16.3346L2.28569 20.0981V7.99986C2.28569 7.36865 2.79736 6.85698 3.42857 6.85698H28.5714C29.2026 6.85698 29.7143 7.36865 29.7143 7.99986V17.8124H29.7142Z" fill="#F8F8F8"/>
<path d="M10.2857 9.14282C8.39217 9.14282 6.85715 10.6778 6.85715 12.5714C6.85715 14.4649 8.39217 16 10.2857 16C12.1793 16 13.7143 14.4649 13.7143 12.5714C13.7143 10.6778 12.1793 9.14282 10.2857 9.14282ZM10.2857 13.7143C9.65451 13.7143 9.14284 13.2026 9.14284 12.5714C9.14284 11.9402 9.65451 11.4285 10.2857 11.4285C10.9169 11.4285 11.4286 11.9402 11.4286 12.5714C11.4286 13.2026 10.9169 13.7143 10.2857 13.7143Z" fill="#F8F8F8"/>
</svg>
