<svg width="42" height="42" viewBox="0 0 42 42" fill="none" xmlns="http://www.w3.org/2000/svg">
<path d="M21 0C9.40201 0 0 9.40201 0 21C0 32.5979 9.40201 41.9999 21 41.9999C32.5979 41.9999 41.9999 32.5979 41.9999 21C41.9876 9.40719 32.5928 0.0123926 21 0ZM21 38.9999C11.0588 38.9999 2.99997 30.9411 2.99997 21C2.99997 11.0588 11.0588 2.99997 21 2.99997C30.9411 2.99997 38.9999 11.0588 38.9999 21C38.9892 30.9367 30.9367 38.9892 21 38.9999Z" fill="#D92B4B"/>
<path d="M29.8439 20.3309C29.6986 20.0392 29.4622 19.8028 29.1705 19.6574L17.1705 13.6574C16.4295 13.2871 15.5286 13.5876 15.1582 14.3287C15.0541 14.5371 14.9999 14.767 15 15V27C14.9996 27.8285 15.6709 28.5003 16.4993 28.5007C16.7323 28.5008 16.9622 28.4467 17.1705 28.3425L29.1705 22.3425C29.912 21.973 30.2135 21.0723 29.8439 20.3309ZM18.0001 24.573V17.427L25.1461 21L18.0001 24.573Z" fill="#D92B4B"/>
</svg>
