<svg width="42" height="42" viewBox="0 0 42 42" fill="none" xmlns="http://www.w3.org/2000/svg">
<g clip-path="url(#clip0)">
<path d="M41.9935 10.3797C41.9706 10.1477 41.8803 9.91494 41.7216 9.72126C41.6603 9.64637 42.287 10.2779 32.3697 0.360562C32.1333 0.124152 31.8123 4.00808e-05 31.4992 0.000122111C30.753 0.000122111 4.43471 0.000122111 3.69136 0.000122111C1.65594 0.000122111 0 1.65606 0 3.69148V38.3082C0 40.3436 1.65594 41.9995 3.69136 41.9995H38.3081C40.3435 41.9995 41.9994 40.3436 41.9994 38.3082C41.9995 8.43396 42.0028 10.4741 41.9935 10.3797ZM28.3005 2.46102V10.5C28.3005 11.1784 27.7485 11.7304 27.07 11.7304H25.5115V2.46102H28.3005ZM23.0505 2.46102V11.7304H11.6484C10.9699 11.7304 10.4179 11.1784 10.4179 10.5V2.46102H23.0505ZM28.3005 26.3318H10.4179V24.7732C10.4179 24.0947 10.9699 23.5428 11.6484 23.5428H27.07C27.7485 23.5428 28.3005 24.0947 28.3005 24.7732V26.3318ZM10.4179 39.5386V28.7927H28.3005V39.5386H10.4179ZM39.5386 38.3082C39.5386 38.9866 38.9866 39.5386 38.3082 39.5386H30.7614C30.7614 37.9345 30.7614 26.6018 30.7614 24.7732C30.7614 22.7378 29.1054 21.0819 27.07 21.0819H11.6484C9.61295 21.0819 7.957 22.7378 7.957 24.7732V39.5386H3.69144C3.01297 39.5386 2.46099 38.9866 2.46099 38.3082V3.69148C2.46099 3.01301 3.01297 2.46102 3.69144 2.46102H7.957V10.5C7.957 12.5354 9.61295 14.1913 11.6484 14.1913H27.07C29.1054 14.1913 30.7614 12.5354 30.7614 10.5V2.46102H30.99L39.5386 11.0097V38.3082Z" fill="#D92B4B"/>
</g>
<defs>
<clipPath id="clip0">
<rect width="42" height="42" fill="white"/>
</clipPath>
</defs>
</svg>
