<svg width="42" height="42" viewBox="0 0 42 42" fill="none" xmlns="http://www.w3.org/2000/svg">
<path d="M33.9873 37.8913V4.1087C33.9873 1.84341 32.1443 0 29.8786 0H12.1199C9.85464 0 8.01123 1.84341 8.01123 4.1087V37.8913C8.01123 40.157 9.85464 42 12.1199 42H29.9243C31.0222 42 32.09 41.5485 32.8538 40.7615C33.617 39.9744 34.0192 38.9404 33.9873 37.8913ZM30.8875 38.8537C30.6332 39.1167 30.2913 39.2609 29.9242 39.2609H12.1199C11.3648 39.2609 10.7503 38.6464 10.7503 37.8913V4.1087C10.7503 3.3536 11.3648 2.73911 12.1199 2.73911H29.8786C30.6337 2.73911 31.2482 3.3536 31.2482 4.1087L31.2487 37.9324C31.2591 38.2757 31.1308 38.603 30.8875 38.8537Z" fill="#D92B4B"/>
<path d="M32.663 5.34131H9.38037V8.08041H32.663V5.34131Z" fill="#D92B4B"/>
<path d="M32.663 31.7739H9.38037V34.513H32.663V31.7739Z" fill="#D92B4B"/>
<path d="M22.1634 35.4717H19.8808C19.1243 35.4717 18.5112 36.0848 18.5112 36.8413C18.5112 37.5978 19.1243 38.2109 19.8808 38.2109H22.1634C22.9199 38.2109 23.533 37.5978 23.533 36.8413C23.533 36.0848 22.9198 35.4717 22.1634 35.4717Z" fill="#D92B4B"/>
</svg>
